HIERARCHY
ROOT Hips
{
	OFFSET 0.00000 0.00000 0.00000
	CHANNELS 6 Xposition Yposition Zposition Zrotation Yrotation Xrotation 
	JOINT RightUpLegDummy
	{
		OFFSET 0 0 0
		CHANNELS 3 Zrotation Yrotation Xrotation
		JOINT RightUpLeg
		{
			OFFSET -3.52197 -3.41223 0.04002
			CHANNELS 3 Zrotation Yrotation Xrotation
			JOINT RightLeg
			{
				OFFSET 0.00006 -17.42390 1.60435
				CHANNELS 3 Zrotation Yrotation Xrotation
				JOINT RightFoot
				{
					OFFSET 0.06153 -16.50078 -1.63901
					CHANNELS 3 Zrotation Yrotation Xrotation
					JOINT RightToes
					{
						OFFSET 0.00298 -1.73825 3.34613
						CHANNELS 3 Zrotation Yrotation Xrotation
						End Site
						{
							OFFSET 0.00480 -0.05416 3.85043
						}
					}
				}
			}
		}
	}
	JOINT SpineDummy
	{
		OFFSET 0 0 0
		CHANNELS 3 Zrotation Yrotation Xrotation
		JOINT Spine
		{
			OFFSET 0.00000 4.68130 0.00000
			CHANNELS 3 Zrotation Yrotation Xrotation
			JOINT Spine1
			{
				OFFSET -0.00000 10.10138 0.05002
				CHANNELS 3 Zrotation Yrotation Xrotation
				JOINT HEadDummy
				{
					OFFSET 0 0 0
					CHANNELS 3 Zrotation Yrotation Xrotation
					JOINT Head
					{
						OFFSET -0.00000 3.43865 0.00438
						CHANNELS 3 Zrotation Yrotation Xrotation
						End Site
						{
							OFFSET -0.11417 5.02924 0.98962
						}
					}
				}
				JOINT LeftShoulder1Dummy
				{
					OFFSET 0 0 0
					CHANNELS 3 Zrotation Yrotation Xrotation
					JOINT LeftShoulder1
					{
						OFFSET 3.53937 -0.14262 -0.08662
						CHANNELS 3 Zrotation Yrotation Xrotation
						JOINT LeftArm
						{
							OFFSET 4.04833 -0.00133 0.12681
							CHANNELS 3 Zrotation Yrotation Xrotation
							JOINT LeftForeArm
							{
								OFFSET 10.33880 -0.01036 -0.55515
								CHANNELS 3 Zrotation Yrotation Xrotation
								JOINT LeftHand
								{
									OFFSET 8.69677 0.07543 0.40060
									CHANNELS 3 Zrotation Yrotation Xrotation
									End Site
									{
										OFFSET 5.28377 -0.21905 0.59205
									}
								}
							}
						}
					}
				}
				JOINT RightShoulderDummy
				{
					OFFSET 0 0 0
					CHANNELS 3 Zrotation Yrotation Xrotation
					JOINT RightShoulder
					{
						OFFSET -3.53937 -0.14262 -0.08660
						CHANNELS 3 Zrotation Yrotation Xrotation
						JOINT RightArm
						{
							OFFSET -4.04833 -0.00133 0.12683
							CHANNELS 3 Zrotation Yrotation Xrotation
							JOINT RightForeArm
							{
								OFFSET -10.37987 -0.01039 -0.55511
								CHANNELS 3 Zrotation Yrotation Xrotation
								JOINT RightHand
								{
									OFFSET -8.67398 0.07538 0.40058
									CHANNELS 3 Zrotation Yrotation Xrotation
									End Site
									{
										OFFSET -5.24810 -0.21916 0.59204
									}
								}
							}
						}
					}
				}
			}
		}
	}
	JOINT LeftUpLegDummy
	{
		OFFSET 0 0 0
		CHANNELS 3 Zrotation Yrotation Xrotation
		JOINT LeftUpLeg
		{
			OFFSET 3.52197 -3.41223 0.04002
			CHANNELS 3 Zrotation Yrotation Xrotation
			JOINT LeftLeg
			{
				OFFSET -0.00012 -17.42399 1.60337
				CHANNELS 3 Zrotation Yrotation Xrotation
				JOINT LeftFoot
				{
					OFFSET -0.09972 -16.50070 -1.63802
					CHANNELS 3 Zrotation Yrotation Xrotation
					JOINT LeftToes
					{
						OFFSET -0.01575 -1.73823 3.34611
						CHANNELS 3 Zrotation Yrotation Xrotation
						End Site
						{
							OFFSET 0.03150 -0.01868 3.85031
						}
					}
				}
			}
		}
	}
}
MOTION
Frames: 11
Frame Time: 0.033333
50.3111 40.3999 -66.5914 -1.8530 -26.2431 -1.5427 0.0000 0.0000 0.0000 1.2427 -1.7819 2.4678 -2.9242 -14.4792 3.4344 0.8148 -0.0673 -2.2070 0.0000 -0.0000 0.0000 0.0000 0.0000 0.0000 3.0621 2.1330 1.3331 0.0787 2.0679 3.2419 -0.0000 0.0000 -0.0000 -1.1718 12.9435 39.0232 -0.0000 0.0000 -0.0000 -34.8660 -2.1248 2.3029 -41.9582 -10.3477 -26.3627 -7.2018 5.5024 33.8420 1.2218 -5.2378 -0.0680 -0.0000 0.0000 -0.0000 34.6077 5.1454 3.5137 40.9344 8.8967 -15.5800 10.7963 1.6106 23.5976 -9.6892 3.2936 -0.6976 0.0000 0.0000 0.0000 0.8516 1.8382 1.5251 -0.4962 0.0937 4.9196 -1.5262 0.1134 -4.8410 0.0000 0.0000 -0.0000
50.3006 40.3937 -66.5823 -1.8719 -26.9895 -1.6168 0.0000 0.0000 0.0000 1.2463 -1.7671 2.4234 -2.8636 -13.7385 3.6011 0.7514 -0.0630 -2.2838 0.0000 -0.0000 0.0000 0.0000 0.0000 0.0000 3.1177 2.0989 1.3576 -0.1929 2.0896 3.2039 -0.0000 0.0000 -0.0000 -1.1479 13.0454 37.3481 -0.0000 0.0000 -0.0000 -34.9868 -2.2082 2.3440 -44.0375 -10.7350 -26.8840 -6.5861 5.4869 34.9282 0.9457 -4.2405 -0.0389 -0.0000 0.0000 -0.0000 34.8367 5.1735 3.5453 40.7454 8.8274 -15.5316 10.8445 1.6786 23.2937 -10.2071 2.8857 -0.7036 0.0000 0.0000 0.0000 0.8309 1.8250 1.7016 -0.3278 0.7587 4.9418 -1.4789 0.1104 -4.9290 0.0000 0.0000 -0.0000
50.2526 40.3837 -66.5814 -1.8916 -28.4740 -1.6597 0.0000 0.0000 0.0000 1.3215 -1.6640 2.2197 -2.7839 -12.3829 3.9173 0.5842 -0.0518 -2.4148 0.0000 -0.0000 0.0000 0.0000 0.0000 0.0000 3.0353 2.0717 1.3322 -0.4614 2.1213 3.1023 -0.0000 0.0000 -0.0000 -1.0647 13.1829 35.3426 -0.0000 0.0000 -0.0000 -35.1869 -2.3325 2.4068 -46.6913 -11.1322 -28.2293 -5.5549 5.5169 33.7406 3.1304 -1.8507 -0.1747 -0.0000 0.0000 -0.0000 35.0301 5.1879 3.5683 40.7104 8.7525 -15.5901 10.8488 1.6549 23.0954 -11.0596 2.4418 -0.7266 0.0000 0.0000 0.0000 0.8337 1.8274 1.9127 -0.0132 2.1086 5.0234 -1.5460 0.1147 -5.0964 0.0000 0.0000 -0.0000
50.1593 40.3703 -66.5974 -1.9300 -30.0705 -1.6327 0.0000 0.0000 0.0000 1.4843 -1.5136 1.9344 -2.6708 -10.9804 4.2913 0.3270 -0.0347 -2.5968 0.0000 -0.0000 0.0000 0.0000 0.0000 0.0000 2.7813 2.0667 1.2574 -0.4588 2.1230 2.9780 -0.0000 0.0000 -0.0000 -0.9757 13.4090 34.4524 -0.0000 0.0000 -0.0000 -35.1964 -2.3925 2.4321 -47.2796 -10.8324 -28.9194 -5.3220 5.5673 30.9940 7.6825 -0.7973 -0.4104 -0.0000 0.0000 -0.0000 34.9889 5.1693 3.5570 41.0071 8.6221 -15.8481 10.7248 1.5180 23.4914 -11.2091 2.5517 -0.7460 0.0000 0.0000 0.0000 0.9648 1.9515 1.9995 0.2548 3.4854 5.3028 -1.7818 0.1252 -5.3649 0.0000 0.0000 -0.0000
50.0403 40.3521 -66.6201 -2.0577 -31.4130 -1.6208 0.0000 0.0000 0.0000 1.7260 -1.3906 1.7993 -2.4716 -9.7917 4.5930 -0.0123 -0.0122 -2.8123 0.0000 -0.0000 0.0000 0.0000 0.0000 0.0000 2.5380 2.0243 1.2071 -0.2413 2.0411 2.9359 -0.0000 0.0000 -0.0000 -1.2788 13.2446 34.4122 -0.0000 0.0000 -0.0000 -34.9461 -2.3490 2.3993 -45.6567 -9.9935 -28.1294 -6.1019 5.5627 30.9082 10.2478 -2.4604 -0.6649 -0.0000 0.0000 -0.0000 34.8464 5.1518 3.5373 41.2982 8.3498 -16.0711 10.5965 1.4050 24.0726 -10.5218 2.9252 -0.7299 0.0000 0.0000 0.0000 1.2834 2.2376 2.0432 0.3966 4.4813 5.8186 -1.9999 0.1321 -5.7593 0.0000 0.0000 -0.0000
49.9168 40.3318 -66.6421 -2.2801 -32.5112 -1.6809 0.0000 0.0000 0.0000 2.0488 -1.2722 1.9204 -2.2511 -8.8640 4.7125 -0.3718 0.0115 -2.9929 0.0000 -0.0000 0.0000 0.0000 0.0000 0.0000 2.3846 1.9139 1.2073 0.0620 1.8686 3.0134 -0.0000 0.0000 -0.0000 -1.5597 13.1428 34.2563 -0.0000 0.0000 -0.0000 -34.6657 -2.2596 2.3462 -43.3038 -9.4823 -26.9771 -6.8733 5.5028 33.9629 8.7685 -4.8145 -0.7293 -0.0000 0.0000 -0.0000 34.7813 5.1606 3.5352 41.2473 7.9558 -16.0400 10.6165 1.3336 24.2401 -9.7830 3.0882 -0.6891 0.0000 0.0000 0.0000 1.7079 2.5717 2.1827 0.5050 5.1741 6.3941 -2.0795 0.1307 -6.1883 0.0000 0.0000 -0.0000
49.7905 40.3160 -66.6697 -2.4758 -33.5017 -1.7708 0.0000 0.0000 0.0000 2.4034 -1.1034 2.1308 -2.1234 -8.1570 4.7069 -0.6552 0.0302 -3.1122 0.0000 -0.0000 0.0000 0.0000 0.0000 0.0000 2.1974 1.7955 1.2127 0.3932 1.6829 3.0900 -0.0000 0.0000 -0.0000 -1.4709 13.0753 34.0520 -0.0000 0.0000 -0.0000 -34.4768 -2.2127 2.3162 -41.2406 -9.5607 -26.6314 -7.0487 5.4517 36.5040 6.4758 -5.6961 -0.5725 -0.0000 0.0000 -0.0000 34.8061 5.1790 3.5448 40.9832 7.5165 -15.9489 10.7105 1.1020 24.2455 -9.5072 3.1313 -0.6720 0.0000 0.0000 0.0000 2.0649 2.7958 2.4109 0.6950 5.8430 6.7949 -2.1318 0.1292 -6.4919 0.0000 0.0000 -0.0000
49.6559 40.3054 -66.7100 -2.5319 -34.4208 -1.8196 0.0000 0.0000 0.0000 2.6862 -0.9246 2.1812 -2.0739 -7.5515 4.7804 -0.8686 0.0443 -3.2389 0.0000 -0.0000 0.0000 0.0000 0.0000 0.0000 1.9187 1.7271 1.1738 0.6713 1.5630 3.0372 -0.0000 0.0000 -0.0000 -1.1947 12.8222 33.8940 -0.0000 0.0000 -0.0000 -34.1864 -2.2127 2.2993 -39.5345 -9.7324 -26.8516 -7.0677 5.4666 35.7354 7.0647 -4.7748 -0.5750 -0.0000 0.0000 -0.0000 34.8588 5.1903 3.5541 40.8361 7.0836 -16.1584 10.6852 0.5021 24.7420 -9.5965 3.2756 -0.6895 0.0000 0.0000 0.0000 2.2775 2.9029 2.5935 0.9329 6.5811 6.9987 -2.2721 0.1331 -6.6397 0.0000 0.0000 -0.0000
49.5167 40.2941 -66.7590 -2.4817 -35.2286 -1.8276 0.0000 0.0000 0.0000 2.8620 -0.8052 2.0388 -2.0031 -6.9375 5.0504 -1.1164 0.0608 -3.4412 0.0000 -0.0000 0.0000 0.0000 0.0000 0.0000 1.6617 1.6712 1.0989 0.8193 1.4831 2.8908 -0.0000 0.0000 -0.0000 -0.9788 12.4765 33.8162 -0.0000 0.0000 -0.0000 -33.7098 -2.1945 2.2646 -38.1142 -9.7855 -27.0084 -7.2846 5.5190 32.9059 10.7488 -3.4786 -0.7937 -0.0000 0.0000 -0.0000 34.9485 5.2065 3.5687 40.8138 6.6692 -16.6863 10.5229 -0.4099 25.5431 -9.9469 3.2482 -0.7135 0.0000 0.0000 0.0000 2.4434 3.0343 2.6631 1.0803 7.2272 7.1900 -2.4378 0.1378 -6.7793 0.0000 0.0000 -0.0000
49.3786 40.2782 -66.8083 -2.4223 -35.8775 -1.8696 0.0000 0.0000 0.0000 3.0030 -0.7248 1.8875 -1.9106 -6.3832 5.4387 -1.4089 0.0805 -3.7089 0.0000 -0.0000 0.0000 0.0000 0.0000 0.0000 1.4746 1.5743 1.0634 0.9363 1.3654 2.7602 -0.0000 0.0000 -0.0000 -0.8243 12.2278 33.6954 -0.0000 0.0000 -0.0000 -33.3227 -2.1469 2.2236 -36.9406 -10.0427 -27.2395 -7.3955 5.5582 30.5771 14.6792 -2.8270 -1.0177 -0.0000 0.0000 -0.0000 35.0604 5.2287 3.5877 40.7109 6.2098 -17.2672 10.3640 -1.3084 25.8295 -10.4747 2.8105 -0.7169 0.0000 0.0000 0.0000 2.6639 3.2598 2.6995 1.0959 7.5962 7.4807 -2.5579 0.1387 -7.0152 0.0000 0.0000 -0.0000
49.2372 40.2603 -66.8557 -2.3732 -36.3514 -1.9971 0.0000 0.0000 0.0000 3.1682 -0.6386 1.8647 -1.8622 -6.0222 5.8153 -1.6456 0.0907 -4.0027 0.0000 -0.0000 0.0000 0.0000 0.0000 0.0000 1.2778 1.4716 1.1392 1.1750 1.2183 2.6531 -0.0000 0.0000 -0.0000 -0.6857 11.9882 33.3765 -0.0000 0.0000 -0.0000 -33.2218 -2.1350 2.2132 -35.8654 -10.5965 -27.8125 -7.1817 5.5783 29.4191 16.7919 -2.6297 -1.1416 -0.0000 0.0000 -0.0000 35.0609 5.2268 3.5870 40.5836 5.6035 -17.7798 10.2508 -1.9113 25.5144 -10.8573 2.3425 -0.7041 0.0000 0.0000 0.0000 2.8965 3.4761 2.8066 1.1100 7.7458 7.7869 -2.6994 0.1397 -7.2611 0.0000 0.0000 -0.0000
